<svg width="30" height="30" viewBox="0 0 30 30" fill="none" xmlns="http://www.w3.org/2000/svg">
<path d="M8.05189 2.30505C7.31604 3.12889 7.31604 4.37623 8.05189 5.20007C8.06774 5.21572 8.08452 5.2304 8.10212 5.24403C8.38345 5.65112 8.36741 6.19463 8.06257 6.58432C8.0443 6.60242 8.0275 6.62196 8.01234 6.64275L8.00699 6.64972C7.88992 6.8121 7.8729 7.02643 7.96287 7.20536C8.05284 7.38429 8.23477 7.49794 8.43453 7.5C8.58236 7.50028 8.72381 7.43961 8.82573 7.3322C9.5557 6.50775 9.55271 5.26504 8.81878 4.44415C8.80323 4.42837 8.78663 4.41369 8.76908 4.40018C8.50269 4.00998 8.50269 3.49567 8.76908 3.10547C8.78779 3.09137 8.80564 3.07615 8.82252 3.0599C9.55031 2.24529 9.56016 1.0147 8.8455 0.188468C8.6638 -0.0269199 8.34613 -0.062668 8.12136 0.106978C7.88519 0.285777 7.83742 0.622411 8.01448 0.86022C8.02964 0.881013 8.04644 0.900554 8.06471 0.918656C8.36971 1.30817 8.38617 1.85157 8.10533 2.25894C8.08673 2.27337 8.06889 2.28876 8.05189 2.30505Z" fill="#FC5185"/>
<path d="M11.1759 2.30278C10.4414 3.12708 10.4414 4.37446 11.1759 5.19876C11.1929 5.21465 11.2107 5.22951 11.2293 5.24328C11.5099 5.65079 11.4934 6.19437 11.1888 6.58401C11.1707 6.60212 11.1541 6.62167 11.1391 6.64247L11.1338 6.64944C11.0168 6.81187 10.9998 7.02627 11.0897 7.20526C11.1796 7.38425 11.3613 7.49794 11.5609 7.5C11.7087 7.50017 11.8501 7.43951 11.9522 7.33214C12.6812 6.50733 12.6782 5.26439 11.9452 4.44313C11.9294 4.4273 11.9127 4.41244 11.8951 4.39861C11.6298 4.00821 11.6298 3.4944 11.8951 3.104C11.914 3.09018 11.9318 3.07494 11.9485 3.05842C12.675 2.24335 12.6848 1.01271 11.9714 0.186028C11.7888 -0.0266808 11.4737 -0.0617719 11.2491 0.105584C11.0132 0.284442 10.9654 0.621189 11.1423 0.859077C11.1573 0.879871 11.1739 0.899419 11.192 0.917533C11.4968 1.307 11.5137 1.85047 11.2336 2.25827C11.2134 2.27176 11.1941 2.28663 11.1759 2.30278Z" fill="#FC5185"/>
<path d="M14.3009 2.30278C13.5664 3.12708 13.5664 4.37446 14.3009 5.19876C14.3179 5.21465 14.3357 5.22951 14.3543 5.24328C14.6349 5.65079 14.6184 6.19437 14.3138 6.58401C14.2957 6.60212 14.2791 6.62167 14.2641 6.64247L14.2588 6.64944C14.1418 6.81187 14.1248 7.02627 14.2147 7.20526C14.3046 7.38425 14.4863 7.49794 14.6859 7.5C14.8337 7.50017 14.9751 7.43951 15.0772 7.33214C15.8062 6.50733 15.8032 5.26439 15.0702 4.44313C15.0544 4.4273 15.0377 4.41244 15.0201 4.39861C14.7548 4.00821 14.7548 3.4944 15.0201 3.104C15.039 3.09018 15.0568 3.07494 15.0735 3.05842C15.8 2.24335 15.8098 1.01271 15.0964 0.186028C14.9138 -0.0266808 14.5987 -0.0617719 14.3741 0.105584C14.1382 0.284442 14.0904 0.621189 14.2673 0.859077C14.2823 0.879871 14.2989 0.899419 14.317 0.917533C14.6218 1.307 14.6387 1.85047 14.3586 2.25827C14.3384 2.27176 14.3191 2.28663 14.3009 2.30278Z" fill="#FC5185"/>
<path d="M24.1634 3.54534C24.7037 2.28492 24.1739 0.803153 22.9767 0.226757C22.9668 0.221547 22.9519 0.216337 22.9419 0.211128C22.3512 -0.0613441 21.6803 -0.0704452 21.0831 0.18591C20.4859 0.442266 20.0134 0.942099 19.7741 1.57086L17.8729 8.09524C17.6864 8.73519 18.1664 9.375 18.833 9.375H20.3239C20.6865 9.375 21.0206 9.17879 21.1972 8.86219L24.1634 3.54534Z" fill="#053F5E"/>
<path d="M23.125 12.5H25.8036C26.3953 12.5 26.875 12.0803 26.875 11.5625C26.875 11.0447 26.3953 10.625 25.8036 10.625H23.125V12.5Z" fill="#053F5E"/>
<path d="M29.375 25.3977C29.3732 24.8336 28.8975 24.3767 28.3102 24.375H1.68981C1.10246 24.3767 0.626754 24.8336 0.625 25.3977C0.625 27.9395 2.68551 30 5.22727 30H24.7727C27.3145 30 29.375 27.9395 29.375 25.3977ZM18.1944 27.9545C18.1944 28.237 17.9561 28.4659 17.662 28.4659H12.338C12.0439 28.4659 11.8056 28.237 11.8056 27.9545V26.4205C11.8056 26.138 12.0439 25.9091 12.338 25.9091H17.662C17.9561 25.9091 18.1944 26.138 18.1944 26.4205V27.9545ZM21.6551 28.4659C20.92 28.4659 20.3241 27.8935 20.3241 27.1875C20.3241 26.4815 20.92 25.9091 21.6551 25.9091C22.3902 25.9091 22.9861 26.4815 22.9861 27.1875C22.9861 27.8935 22.3902 28.4659 21.6551 28.4659ZM26.4468 28.4659C25.7117 28.4659 25.1157 27.8935 25.1157 27.1875C25.1157 26.4815 25.7117 25.9091 26.4468 25.9091C27.1819 25.9091 27.7778 26.4815 27.7778 27.1875C27.7778 27.8935 27.1819 28.4659 26.4468 28.4659Z" fill="#053F5E"/>
<path d="M4.19643 12.5H6.875V10.625H4.19643C3.60469 10.625 3.125 11.0447 3.125 11.5625C3.125 12.0803 3.60469 12.5 4.19643 12.5Z" fill="#053F5E"/>
<path d="M9.58333 23.125H20.4167C21.9124 23.125 23.125 21.9084 23.125 20.4076V10.625H6.875V20.4076C6.875 21.9084 8.08756 23.125 9.58333 23.125ZM7.95833 12.2554C7.95833 11.9553 8.20085 11.712 8.5 11.712C8.79915 11.712 9.04167 11.9553 9.04167 12.2554V12.7989C9.04167 13.0991 8.79915 13.3424 8.5 13.3424C8.20085 13.3424 7.95833 13.0991 7.95833 12.7989V12.2554ZM7.95833 14.9728C7.95833 14.6727 8.20085 14.4293 8.5 14.4293C8.79915 14.4293 9.04167 14.6727 9.04167 14.9728V20.4076C9.04167 20.7078 8.79915 20.9511 8.5 20.9511C8.20085 20.9511 7.95833 20.7078 7.95833 20.4076V14.9728Z" fill="#053F5E"/>
<circle cx="21.875" cy="2.5" r="1.25" fill="white"/>
</svg>
