<svg width="30" height="30" viewBox="0 0 30 30" fill="none" xmlns="http://www.w3.org/2000/svg">
<path d="M26.1922 29.0299L21.6504 18.5322C21.5424 18.2828 21.3023 18.125 21.0381 18.125H9.59734C9.33255 18.125 9.09183 18.2828 8.98448 18.5322L4.43354 29.0306C4.3405 29.2432 4.35937 29.4906 4.48298 29.6858C4.60725 29.8817 4.81934 30 5.04705 30L8.85111 29.9953C9.19527 29.9953 9.48219 29.7279 9.51732 29.3762C9.8179 26.3563 12.2999 24.0017 15.3181 24.0017C18.3362 24.0017 20.8189 26.3557 21.1195 29.3762C21.1546 29.7266 21.4422 29.9953 21.785 29.9953L25.5787 30C25.8064 30 26.0178 29.8817 26.1421 29.6858C26.2651 29.4906 26.2846 29.2439 26.1922 29.0299Z" fill="#053F5E"/>
<path d="M10.6721 16.875H19.953C20.1622 16.875 20.3597 16.7742 20.4855 16.609C20.6132 16.4431 20.6562 16.2258 20.6021 16.0255L16.529 0.900893C16.3856 0.368813 15.9033 0 15.352 0H15.2731C14.7218 0 14.2395 0.367512 14.0962 0.898942L10.023 16.0235C9.96891 16.2252 10.0113 16.4437 10.139 16.6083C10.2661 16.7748 10.4629 16.875 10.6721 16.875Z" fill="#FC5185"/>
</svg>
