<svg width="32" height="30" viewBox="0 0 32 30" fill="none" xmlns="http://www.w3.org/2000/svg">
<path d="M30.738 10.5639L21.2156 9.19515L16.9588 0.660254C16.8425 0.426573 16.6513 0.237403 16.415 0.122418C15.8224 -0.166901 15.1023 0.074198 14.806 0.660254L10.5493 9.19515L1.02682 10.5639C0.764287 10.6009 0.524257 10.7233 0.340484 10.9088C0.118313 11.1347 -0.00411392 11.4385 0.00010556 11.7536C0.00432504 12.0686 0.134845 12.3691 0.362987 12.5891L7.2526 19.2323L5.6249 28.6129C5.58672 28.8311 5.61114 29.0555 5.69537 29.2607C5.77961 29.4659 5.92029 29.6436 6.10146 29.7738C6.28264 29.9039 6.49706 29.9812 6.72041 29.997C6.94376 30.0127 7.1671 29.9663 7.36511 29.8629L15.8824 25.4341L24.3997 29.8629C24.6323 29.9853 24.9023 30.0261 25.1611 29.9816C25.8137 29.8703 26.2525 29.2583 26.14 28.6129L24.5123 19.2323L31.4019 12.5891C31.5894 12.4073 31.7132 12.1699 31.7507 11.9103C31.8519 11.2612 31.3944 10.6603 30.738 10.5639Z" fill="#FFCD00"/>
</svg>
