<svg width="34" height="44" viewBox="0 0 34 44" fill="none" xmlns="http://www.w3.org/2000/svg">
<path d="M14.6361 41.7332L14.637 41.7346C15.7797 43.3801 18.2202 43.3802 19.3629 41.7346L19.3639 41.7332C21.3638 38.843 23.0834 36.4008 24.5577 34.3069C27.2427 30.4936 29.1142 27.8358 30.3838 25.7312C31.3799 24.0802 32.0438 22.7108 32.452 21.3365C32.8626 19.9546 33 18.6168 33 17.0469C33 8.23323 25.8336 1.09375 17 1.09375C8.16637 1.09375 1 8.23323 1 17.0469C1 18.6168 1.13745 19.9546 1.54799 21.3365C1.95624 22.7108 2.62014 24.0802 3.61619 25.7312C4.88584 27.8358 6.75725 30.4936 9.44226 34.3069C10.9166 36.4007 12.6362 38.843 14.6361 41.7332ZM22.25 17.0469C22.25 19.9326 19.9025 22.2773 17 22.2773C14.0975 22.2773 11.75 19.9326 11.75 17.0469C11.75 14.1611 14.0975 11.8164 17 11.8164C19.9025 11.8164 22.25 14.1611 22.25 17.0469Z" fill="#053F5E" stroke="white" stroke-width="2"/>
</svg>
