<svg width="30" height="30" viewBox="0 0 30 30" fill="none" xmlns="http://www.w3.org/2000/svg">
<path d="M21.9028 18.513C21.4353 19.267 20.9246 20.053 20.3714 20.8703C25.0239 21.5661 27.406 23.0563 27.406 23.7978C27.406 24.7852 23.1851 27.0993 14.9997 27.0993C6.81488 27.0993 2.594 24.7852 2.594 23.7978C2.594 23.0563 4.97548 21.5667 9.62924 20.8703C9.07539 20.053 8.56536 19.267 8.09717 18.513C3.50553 19.3788 0 21.1587 0 23.7978C0 27.6689 7.54659 29.6946 14.9997 29.6946C22.4541 29.6946 30 27.6689 30 23.7978C30.0007 21.1587 26.4958 19.3788 21.9028 18.513Z" fill="#053F5E"/>
<path d="M15.0337 0.306023C10.17 0.306023 6.22769 4.24835 6.22769 9.1107C6.22769 12.5992 10.7572 19.2735 13.3192 22.7692C13.72 23.3159 14.3562 23.6389 15.0337 23.6389C15.7098 23.6389 16.348 23.3159 16.7469 22.7692C19.3088 19.2735 23.839 12.5992 23.839 9.1107C23.839 4.24835 19.8967 0.306023 15.0337 0.306023ZM15.0337 14.5779C12.1598 14.5779 9.82214 12.2402 9.82214 9.36768C9.82214 6.49447 12.1598 4.1568 15.0337 4.1568C17.9069 4.1568 20.2439 6.49447 20.2439 9.36768C20.2439 12.2402 17.9069 14.5779 15.0337 14.5779Z" fill="#FC5185"/>
<path d="M15.0337 6.19826C13.2858 6.19826 11.8643 7.61982 11.8643 9.36768C11.8643 11.1142 13.2858 12.5364 15.0337 12.5364C16.7809 12.5364 18.2031 11.1149 18.2031 9.36768C18.2031 7.61917 16.7809 6.19826 15.0337 6.19826Z" fill="#FC5185"/>
</svg>
