<svg width="30" height="30" viewBox="0 0 30 30" fill="none" xmlns="http://www.w3.org/2000/svg">
<rect width="30" height="30" rx="8" fill="#053F5E"/>
<path d="M10 14H12V15.6667H10V14ZM10 17.3333H12V19H10V17.3333ZM14 14H16V15.6667H14V14ZM14 17.3333H16V19H14V17.3333ZM18 14H20V15.6667H18V14ZM18 17.3333H20V19H18V17.3333Z" fill="white"/>
<path d="M8 24H22C23.103 24 24 23.1927 24 22.2V9.6C24 8.6073 23.103 7.8 22 7.8H20V6H18V7.8H12V6H10V7.8H8C6.897 7.8 6 8.6073 6 9.6V22.2C6 23.1927 6.897 24 8 24ZM22 11.4L22.001 22.2H8V11.4H22Z" fill="white"/>
</svg>
