<svg width="30" height="30" viewBox="0 0 30 30" fill="none" xmlns="http://www.w3.org/2000/svg">
<path d="M24.2625 14.2833C24.1594 12.9879 24.0569 11.6936 23.9544 10.3988C23.8288 8.8178 22.5024 7.56181 20.8888 7.64968C20.3751 7.67727 19.8891 7.85075 19.4689 8.12504C18.7683 7.95438 18.0462 7.89918 17.3292 8.06984C17.2656 8.08505 17.2065 8.10758 17.1451 8.1256C16.2146 5.75162 12.3391 5.80963 11.6368 8.33343C10.151 9.93974 8.29123 11.1248 6.18928 11.8085C4.0986 12.4889 4.99356 15.7972 7.10058 15.1112C8.80038 14.5582 10.3312 13.7747 11.706 12.7761C11.8666 14.4562 12.1318 16.1222 12.503 17.7894C10.1791 21.0476 9.14901 24.6297 9.78939 28.7575C10.1268 30.9349 13.4267 30.0079 13.0916 27.8474C12.6466 24.9755 13.4633 22.3515 15.0561 20.0535C15.1034 20.0546 15.1507 20.0569 15.198 20.0546C15.8198 22.9017 16.53 25.7257 17.3242 28.5294C17.9246 30.6516 21.2301 29.7494 20.6263 27.6198C19.6987 24.3441 18.8792 21.0391 18.1921 17.7049C18.2676 17.3213 18.2653 16.8995 18.1611 16.4449C18.1099 16.2208 18.0642 15.9961 18.0192 15.773C18.2614 15.8806 18.5086 15.9809 18.7677 16.062C18.8454 16.0856 18.917 16.0969 18.9851 16.1003C19.5405 16.8966 20.4647 17.4075 21.5123 17.3517C23.0679 17.2656 24.3875 15.8648 24.2625 14.2833ZM17.6396 13.5263C17.4807 12.334 17.3895 11.1388 17.3608 9.9127C17.6424 9.79048 17.9415 9.72796 18.2541 9.71895C18.1561 10.0349 18.1116 10.37 18.1397 10.7159C18.2281 11.8372 18.3166 12.958 18.4073 14.0794C18.1245 13.9262 17.8699 13.7404 17.6396 13.5263Z" fill="#053F5E"/>
<path d="M12.9417 5.80682C14.5452 5.80682 15.8451 4.50692 15.8451 2.90341C15.8451 1.2999 14.5452 0 12.9417 0C11.3382 0 10.0383 1.2999 10.0383 2.90341C10.0383 4.50692 11.3382 5.80682 12.9417 5.80682Z" fill="#FC5185"/>
</svg>
