<svg width="30" height="30" viewBox="0 0 30 30" fill="none" xmlns="http://www.w3.org/2000/svg">
<path d="M28.125 15.3913H1.875C0.84123 15.3913 0 16.2106 0 17.2174C0 18.2242 0.84123 19.0435 1.875 19.0435H28.125C29.1588 19.0435 30 18.2242 30 17.2174C30 16.2106 29.1588 15.3913 28.125 15.3913Z" fill="#053F5E"/>
<path d="M28.2975 17.8492C27.9588 17.7567 27.6187 17.9442 27.525 18.268L27.4762 18.4348H2.52498L2.475 18.268C2.38125 17.9442 2.03877 17.7592 1.7025 17.8492C1.36998 17.9417 1.17873 18.279 1.27377 18.6016L2.99625 24.4742C3.52998 26.2942 5.26002 27.5652 7.20252 27.5652H22.7962C24.74 27.5652 26.4687 26.2942 27.0025 24.4742L28.725 18.6016C28.8213 18.2789 28.6287 17.9417 28.2975 17.8492ZM7.20375 25.1304C6.37125 25.1304 5.62875 24.5862 5.40123 23.8058L4.59 21.0375C4.49502 20.7136 4.6875 20.3776 5.01873 20.2851C5.35371 20.1926 5.69748 20.3813 5.79123 20.7039L6.60246 23.4723C6.67998 23.7316 6.92619 23.9142 7.20369 23.9142C7.54869 23.9142 7.82871 24.1869 7.82871 24.5229C7.82877 24.8589 7.54875 25.1304 7.20375 25.1304Z" fill="#053F5E"/>
<path d="M8.40375 26.4111C8.09502 26.2638 7.72125 26.3819 7.56498 26.6838L6.315 29.1186C6.16125 29.4192 6.28623 29.7845 6.59502 29.9355C6.68625 29.9793 6.78129 30 6.87504 30C7.10379 30 7.32381 29.877 7.43379 29.6628L8.68377 27.228C8.83752 26.9272 8.71248 26.562 8.40375 26.4111Z" fill="#053F5E"/>
<path d="M23.685 29.1198L22.435 26.685C22.28 26.3831 21.905 26.2625 21.5962 26.4123C21.2875 26.5632 21.1625 26.9284 21.3162 27.2292L22.5662 29.6639C22.6762 29.877 22.8962 29.9999 23.125 29.9999C23.2187 29.9999 23.3137 29.9792 23.405 29.9367C23.7138 29.7857 23.8387 29.4205 23.685 29.1198Z" fill="#053F5E"/>
<path d="M25.1055 3.82609C24.4681 3.82609 23.8682 4.07 23.4171 4.51254L21.4337 6.45786C21.19 6.69689 21.19 7.08548 21.4337 7.32451C21.6774 7.56353 22.0736 7.56353 22.3173 7.32451L24.3006 5.3804C24.5143 5.16958 24.8005 5.05311 25.1117 5.05311C25.7391 5.05311 26.249 5.55323 26.249 6.16856V19.0393C26.249 19.3776 26.5289 19.6522 26.8739 19.6522C27.2188 19.6522 27.4988 19.3776 27.5 19.0381V6.16735C27.5001 4.8766 26.4302 3.82609 25.1055 3.82609Z" fill="#053F5E"/>
<path d="M22.9421 7.07077L21.6924 5.84501C21.5499 5.70527 21.3512 5.64028 21.1487 5.67338L18.0243 6.17597C17.7944 6.21274 17.6056 6.37207 17.5319 6.58783C17.4582 6.80359 17.5144 7.04382 17.6769 7.20683L21.4262 10.9945C21.545 11.1158 21.7087 11.1808 21.8736 11.1808C21.9324 11.1808 21.9924 11.1723 22.0511 11.1551C22.2735 11.0914 22.4422 10.9112 22.4872 10.6881L23.1121 7.62364C23.1533 7.42379 23.0896 7.2166 22.9421 7.07077Z" fill="#053F5E"/>
<path d="M17.3169 8.87642C17.0731 8.6354 16.6768 8.6354 16.433 8.87642L15.1828 10.1124C14.9391 10.3534 14.9391 10.7453 15.1828 10.9863C15.3054 11.1061 15.4654 11.1668 15.6254 11.1668C15.7854 11.1668 15.9454 11.1062 16.0667 10.9863L17.3169 9.75029C17.5607 9.50921 17.5607 9.11744 17.3169 8.87642Z" fill="#FC5185"/>
<path d="M19.8172 11.2749C19.5734 11.0339 19.1771 11.0339 18.9333 11.2749L17.6831 12.5109C17.4393 12.7519 17.4393 13.1437 17.6831 13.3847C17.8057 13.5046 17.9656 13.5652 18.1257 13.5652C18.2857 13.5652 18.4457 13.5047 18.567 13.3847L19.8172 12.1488C20.0609 11.9077 20.0609 11.5159 19.8172 11.2749Z" fill="#FC5185"/>
<path d="M18.567 10.1124C18.3232 9.87138 17.9269 9.87138 17.6831 10.1124L16.433 11.3484C16.1892 11.5894 16.1892 11.9812 16.433 12.2223C16.5555 12.3421 16.7155 12.4027 16.8755 12.4027C17.0356 12.4027 17.1956 12.3422 17.3169 12.2223L18.567 10.9863C18.8108 10.7453 18.8108 10.3534 18.567 10.1124Z" fill="#FC5185"/>
</svg>
