<svg width="30" height="30" viewBox="0 0 30 30" fill="none" xmlns="http://www.w3.org/2000/svg">
<path d="M6.25 18.125V19.25C6.25 20.3545 7.14543 21.25 8.25 21.25H21.75C22.8546 21.25 23.75 20.3545 23.75 19.25V18.125C23.75 16.4025 25.1513 15 26.875 15C27.2202 15 27.5 14.7202 27.5 14.375V13.125C27.5 12.0912 26.6588 11.25 25.625 11.25H4.375C3.34123 11.25 2.5 12.0912 2.5 13.125V14.375C2.5 14.7202 2.77983 15 3.12502 15C4.84873 15 6.25 16.4025 6.25 18.125Z" fill="#053F5E"/>
<path d="M28.125 16.25H26.875C25.8412 16.25 25 17.0912 25 18.125V21.875C25 22.22 24.72 22.5 24.375 22.5H5.625C5.28 22.5 4.99998 22.22 4.99998 21.875V18.125C4.99998 17.0912 4.15875 16.25 3.12498 16.25H1.875C0.84123 16.25 0 17.0912 0 18.125V25.625C0 26.6588 0.84123 27.5 1.875 27.5H2.50002V29.375C2.50002 29.72 2.78004 30 3.12504 30H6.87504C7.22004 30 7.50006 29.72 7.50006 29.375V27.5H22.5001V29.375C22.5001 29.72 22.7801 30 23.1251 30H26.8751C27.2201 30 27.5001 29.72 27.5001 29.375V27.5H28.125C29.1588 27.5 30 26.6588 30 25.625V18.125C30 17.0913 29.1588 16.25 28.125 16.25Z" fill="#053F5E"/>
<path d="M9.17243 0.289488L11.1282 6.14233C11.1635 6.24789 11.2324 6.34412 11.2474 6.4544C11.2491 6.46702 11.25 6.47981 11.25 6.49273C11.25 6.69842 11.0323 6.86631 10.76 6.87436C10.7464 6.87477 10.7327 6.87467 10.7191 6.87467H0.510215C0.353015 6.87467 0.203951 6.82042 0.108004 6.72801C0.0110521 6.63559 -0.0226374 6.51414 0.0151193 6.40031L2.0569 0.289488C2.11308 0.119161 2.31828 0 2.55204 0H8.67733C8.9111 0 9.11629 0.119161 9.17243 0.289488Z" fill="#FC5185"/>
<path d="M5 6.92678C5 6.5816 5.27982 6.30178 5.625 6.30178C5.97018 6.30178 6.25 6.5816 6.25 6.92678V9.375C6.25 9.72018 5.97018 10 5.625 10C5.27982 10 5 9.72018 5 9.375V6.92678Z" fill="#FC5185"/>
</svg>
