<svg width="30" height="30" viewBox="0 0 30 30" fill="none" xmlns="http://www.w3.org/2000/svg">
<path d="M15.625 15.375C15.625 14.8227 15.1773 14.375 14.625 14.375L1 14.375C0.447716 14.375 1.17577e-06 14.8227 5.37345e-07 15.375L0 15.8398C0 16.1094 0.159102 16.3281 0.355125 16.3281C0.551255 16.3281 0.71025 16.4871 0.71025 16.6833V29.5117C0.71025 29.7812 0.869352 30 1.06537 30H2.48578C2.6818 30 2.8409 29.7812 2.8409 29.5117V26.1172C2.8409 25.5649 3.28862 25.1172 3.8409 25.1172H11.7841C12.3364 25.1172 12.7841 25.5649 12.7841 26.1172V29.5117C12.7841 29.7812 12.9432 30 13.1392 30H14.5597C14.7557 30 14.9148 29.7812 14.9148 29.5117V16.6832C14.9148 16.4871 15.0738 16.3281 15.2699 16.3281C15.4659 16.3281 15.625 16.1094 15.625 15.8398V15.375ZM12.7841 23.1406C12.7841 23.6929 12.3364 24.1406 11.7841 24.1406H3.8409C3.28861 24.1406 2.8409 23.6929 2.8409 23.1406V19.2812C2.8409 18.7289 3.28862 18.2812 3.8409 18.2812H11.7841C12.3364 18.2812 12.7841 18.7289 12.7841 19.2812L12.7841 23.1406Z" fill="#053F5E"/>
<path d="M18.4927 29.4286H18.1177V21.0085H19.1412L18.4927 29.4286ZM19.7916 21.682L19.8434 21.0085H25.5592L25.7667 21.682H19.7916ZM28.8833 29.4286L26.29 21.0085H27.2912L29.2363 29.4286H28.8833ZM29.1679 10.9653L27.2826 20.3348H18.1177V19.998C18.1177 19.626 18.4312 19.3244 18.8181 19.3244H26.1709C26.334 19.3246 26.4755 19.2163 26.5121 19.0634L28.4881 10.8268C28.5326 10.6514 28.714 10.5418 28.8978 10.5792C29.0814 10.6166 29.201 10.7875 29.1679 10.9653Z" fill="#053F5E"/>
<path fill-rule="evenodd" clip-rule="evenodd" d="M19.0679 30H17.5V19.998C17.5 19.3317 18.0675 18.753 18.8181 18.753H25.9538L27.8867 10.6962C28.0039 10.2341 28.4981 9.91291 29.0303 10.021C29.5552 10.128 29.8625 10.6017 29.7767 11.0623L29.1679 10.9653C29.201 10.7875 29.0814 10.6166 28.8978 10.5792C28.714 10.5418 28.5326 10.6514 28.4881 10.8268L26.5121 19.0634C26.4755 19.2163 26.334 19.3246 26.1709 19.3244H18.8181C18.517 19.3244 18.2604 19.5071 18.1614 19.7633C18.1331 19.8364 18.1177 19.9155 18.1177 19.998V20.3348H27.2826L29.1679 10.9653L29.7752 11.0698L27.844 20.6673L30 30H28.417L26.0315 22.2535H19.6645L19.0679 30ZM25.5592 21.0085H19.8434L19.7916 21.682H25.7667L25.5592 21.0085ZM28.8833 29.4286H29.2363L27.2912 21.0085H26.29L28.8833 29.4286ZM18.1177 21.0085H19.1412L18.4927 29.4286H18.1177V21.0085Z" fill="#053F5E"/>
<path d="M7.18751 13.4375H13.4375L12.8516 14.0625H7.77344L7.18751 13.4375Z" fill="#FC5185"/>
<path fill-rule="evenodd" clip-rule="evenodd" d="M6.90076 13.3133C6.95028 13.199 7.06294 13.125 7.18751 13.125H13.4375C13.5621 13.125 13.6747 13.199 13.7243 13.3133C13.7738 13.4276 13.7507 13.5604 13.6655 13.6512L13.0796 14.2762C13.0205 14.3392 12.9379 14.375 12.8516 14.375H7.77344C7.68707 14.375 7.60454 14.3392 7.54546 14.2762L6.95953 13.6512C6.87433 13.5604 6.85124 13.4276 6.90076 13.3133Z" fill="#FC5185"/>
<path d="M2.8125 10.3646H5.3125L5.07812 14.0104H3.04688L2.8125 10.3646Z" fill="#FC5185"/>
<path fill-rule="evenodd" clip-rule="evenodd" d="M2.58342 10.1166C2.64255 10.0423 2.72556 10 2.8125 10H5.3125C5.39944 10 5.48245 10.0423 5.54158 10.1166C5.60072 10.191 5.63063 10.2907 5.62412 10.3919L5.38975 14.0377C5.37752 14.2279 5.24165 14.375 5.07812 14.375H3.04688C2.88335 14.375 2.74748 14.2279 2.73525 14.0377L2.50088 10.3919C2.49437 10.2907 2.52428 10.191 2.58342 10.1166ZM3.14932 10.7292L3.33682 13.6458H4.78818L4.97568 10.7292H3.14932Z" fill="#FC5185"/>
</svg>
