<svg width="30" height="30" viewBox="0 0 30 30" fill="none" xmlns="http://www.w3.org/2000/svg">
<path d="M12.79 21.5402C11.57 22.7604 11.57 24.7397 12.79 25.96C14.0106 27.18 15.9895 27.18 17.2101 25.96C18.43 24.7397 18.43 22.7604 17.2101 21.5402C15.9895 20.3199 14.0106 20.3199 12.79 21.5402Z" fill="#053F5E"/>
<path d="M15 14.375C12.5925 14.375 10.3277 15.3236 8.6263 17.0464C7.9579 17.7223 7.9579 18.8177 8.6263 19.4931C9.29415 20.169 10.3765 20.169 11.0449 19.4931C12.1002 18.424 13.5053 17.8355 15 17.8355C16.4946 17.8355 17.8998 18.424 18.9551 19.4931C19.2895 19.831 19.7282 19.9999 20.1647 19.9999C20.6034 19.9999 21.0398 19.831 21.3737 19.4931C22.0421 18.8177 22.0421 17.7223 21.3737 17.0464C19.6722 15.3236 17.4074 14.375 15 14.375Z" fill="#FC5185"/>
<path d="M14.6881 8.75C10.7466 8.75 7.04112 10.3351 4.25459 13.2128C3.5818 13.9078 3.5818 15.0343 4.25459 15.7287C4.92787 16.4237 6.01885 16.4237 6.69103 15.7287C8.8267 13.5228 11.6672 12.3082 14.688 12.3082C17.7077 12.3082 20.5482 13.5228 22.6839 15.7287C23.0202 16.0763 23.4622 16.25 23.9019 16.25C24.3438 16.25 24.7841 16.0763 25.1204 15.7287C25.7932 15.0343 25.7932 13.9078 25.1204 13.2128C22.3339 10.3351 18.6297 8.75 14.6881 8.75Z" fill="#FC5185"/>
<path d="M29.495 9.41187C25.624 5.35742 20.4768 3.125 15.0005 3.125C9.5243 3.125 4.37708 5.35742 0.506008 9.41187C-0.168669 10.1186 -0.168669 11.2641 0.506008 11.9701C0.843894 12.3235 1.28592 12.5 1.72795 12.5C2.16998 12.5 2.61322 12.3235 2.94935 11.9701C6.1678 8.59918 10.4483 6.74305 15.0005 6.74305C19.5528 6.74305 23.832 8.59918 27.0506 11.9701C27.7252 12.6768 28.8186 12.6762 29.4939 11.9708C30.1685 11.2641 30.1685 10.1186 29.495 9.41187Z" fill="#FC5185"/>
</svg>
