<svg width="30" height="30" viewBox="0 0 30 30" fill="none" xmlns="http://www.w3.org/2000/svg">
<path d="M26.4791 23.125H2.89589C2.33213 23.125 1.875 23.5678 1.875 24.1142V29.0108C1.875 29.5571 2.33213 30 2.89589 30H26.4791C27.0429 30 27.5 29.5571 27.5 29.0108V24.1142C27.5 23.5679 27.0429 23.125 26.4791 23.125ZM6.84253 27.1966C6.69039 27.3439 6.48003 27.4281 6.26467 27.4281C6.0502 27.4281 5.83994 27.3439 5.6878 27.1966C5.53566 27.0491 5.44793 26.8454 5.44793 26.6367C5.44793 26.4279 5.53566 26.2242 5.6878 26.0769C5.83894 25.9295 6.0502 25.8453 6.26467 25.8453C6.48003 25.8453 6.69039 25.9294 6.84253 26.0769C6.99458 26.2243 7.0814 26.4279 7.0814 26.6367C7.0814 26.8454 6.99458 27.0492 6.84253 27.1966ZM10.2115 27.1966C10.0594 27.3439 9.849 27.4281 9.63374 27.4281C9.41928 27.4281 9.20902 27.3439 9.05687 27.1966C8.90473 27.0491 8.817 26.8454 8.817 26.6367C8.817 26.4279 8.90473 26.2242 9.05687 26.0769C9.20902 25.9295 9.41928 25.8453 9.63374 25.8453C9.849 25.8453 10.0595 25.9294 10.2115 26.0769C10.3637 26.2243 10.4505 26.4279 10.4505 26.6367C10.4505 26.8454 10.3636 27.0492 10.2115 27.1966ZM23.11 27.4281H16.372C15.921 27.4281 15.5553 27.0738 15.5553 26.6367C15.5553 26.1997 15.921 25.8453 16.372 25.8453H23.11C23.5611 25.8453 23.9268 26.1997 23.9268 26.6367C23.9268 27.0738 23.5611 27.4281 23.11 27.4281Z" fill="#FC5185"/>
<path d="M27.7221 1.25H2.27802C1.71032 1.25 1.25 1.71162 1.25 2.28091V19.2912C1.25 19.8605 1.71032 20.3221 2.27802 20.3221H13.972V21.6623H11.6075C11.0398 21.6623 10.5794 22.1239 10.5794 22.6933H19.4206C19.4206 22.1239 18.9602 21.6623 18.3925 21.6623H16.028V20.3221H27.722C28.2898 20.3221 28.75 19.8605 28.75 19.2912V2.28091C28.7501 1.71162 28.2899 1.25 27.7221 1.25ZM17.0309 13.406C16.8904 13.5468 16.7062 13.6174 16.5221 13.6174C16.3379 13.6174 16.1538 13.5469 16.0132 13.406C15.7562 13.1483 15.4146 13.0065 15.0512 13.0065C14.6877 13.0065 14.3459 13.1483 14.0889 13.406C13.8078 13.6879 13.3523 13.6878 13.0711 13.406C12.7901 13.1241 12.7901 12.6671 13.0712 12.3854C13.6 11.8551 14.3031 11.563 15.0511 11.563C15.799 11.563 16.5021 11.8552 17.0308 12.3854C17.312 12.6672 17.312 13.1242 17.0309 13.406ZM18.807 11.2964C18.6664 11.4373 18.4822 11.5078 18.2981 11.5078C18.114 11.5078 17.9298 11.4373 17.7893 11.2964C16.2795 9.78263 13.823 9.78283 12.313 11.2964C12.032 11.5783 11.5763 11.5782 11.2953 11.2964C11.0144 11.0145 11.0144 10.5576 11.2954 10.2758C13.3667 8.19919 16.7363 8.19919 18.8069 10.2758C19.0881 10.5576 19.0881 11.0145 18.807 11.2964ZM20.5977 9.18768C20.4571 9.32848 20.2729 9.39899 20.0888 9.39899C19.9046 9.39899 19.7205 9.32848 19.5799 9.18758C18.3703 7.97434 16.762 7.30626 15.0512 7.30626C13.3403 7.30626 11.7319 7.97434 10.5221 9.18758C10.2411 9.46939 9.78541 9.46929 9.50438 9.18768C9.22335 8.90586 9.22335 8.44889 9.50428 8.16707C10.9859 6.68111 12.9558 5.86293 15.0511 5.86293C17.1464 5.86293 19.1162 6.68121 20.5976 8.16707C20.8787 8.44889 20.8787 8.90586 20.5977 9.18768Z" fill="#053F5E"/>
<path d="M10.0141 22.1875C10.0141 21.6697 10.4326 21.25 10.9489 21.25H19.0512C19.5675 21.25 19.986 21.6697 19.986 22.1875C19.986 22.7053 19.5675 23.125 19.0512 23.125H10.9489C10.4326 23.125 10.0141 22.7053 10.0141 22.1875Z" fill="#053F5E"/>
</svg>
