<svg width="30" height="30" viewBox="0 0 30 30" fill="none" xmlns="http://www.w3.org/2000/svg">
<path d="M26.7857 18.794C26.1103 18.5475 25.3805 18.4205 24.6429 18.4211H5.35714C4.61954 18.4205 3.88983 18.5473 3.21429 18.7935C2.25951 19.1406 1.44706 19.7114 0.876224 20.4361C0.305392 21.1609 0.000912353 22.0082 0 22.8745V29.1093C0 29.3455 0.112882 29.5721 0.313814 29.7391C0.514746 29.9062 0.787268 30 1.07143 30C1.35559 30 1.62811 29.9062 1.82904 29.7391C2.02997 29.5721 2.14286 29.3455 2.14286 29.1093V28.664C2.14459 28.5463 2.20159 28.4339 2.30168 28.3507C2.40178 28.2675 2.53703 28.2201 2.67857 28.2186H27.3214C27.463 28.2201 27.5982 28.2675 27.6983 28.3507C27.7984 28.4339 27.8554 28.5463 27.8571 28.664V29.1093C27.8571 29.3455 27.97 29.5721 28.171 29.7391C28.3719 29.9062 28.6444 30 28.9286 30C29.2127 30 29.4853 29.9062 29.6862 29.7391C29.8871 29.5721 30 29.3455 30 29.1093V22.8745C29.999 22.0083 29.6944 21.1611 29.1236 20.4365C28.5528 19.7118 27.7404 19.1411 26.7857 18.794Z" fill="#053F5E"/>
<path d="M23.0966 10H6.90341C5.90131 10 4.94026 10.3293 4.23167 10.9155C3.52308 11.5017 3.125 12.2968 3.125 13.1258V17.1448C3.12503 17.1793 3.13478 17.2135 3.15348 17.2444C3.17218 17.2754 3.19932 17.3023 3.23275 17.3231C3.26619 17.3439 3.305 17.3579 3.34614 17.3642C3.38727 17.3704 3.4296 17.3687 3.46978 17.3591C4.05912 17.2165 4.67006 17.1443 5.28409 17.1448H5.5695C5.63611 17.1451 5.70053 17.1251 5.75035 17.0885C5.80018 17.0519 5.83189 17.0014 5.83938 16.9466C5.89827 16.5102 6.14939 16.107 6.54479 15.8141C6.9402 15.5212 7.45218 15.359 7.98295 15.3586H11.7614C12.2925 15.3586 12.805 15.5206 13.2008 15.8136C13.5966 16.1065 13.848 16.5099 13.907 16.9466C13.9145 17.0014 13.9462 17.0519 13.996 17.0885C14.0458 17.1251 14.1102 17.1451 14.1768 17.1448H15.8272C15.8938 17.1451 15.9582 17.1251 16.0081 17.0885C16.0579 17.0519 16.0896 17.0014 16.0971 16.9466C16.1559 16.5105 16.4068 16.1076 16.8017 15.8147C17.1967 15.5218 17.7082 15.3594 18.2386 15.3586H22.017C22.5482 15.3586 23.0606 15.5206 23.4565 15.8136C23.8523 16.1065 24.1037 16.5099 24.1626 16.9466C24.1701 17.0014 24.2018 17.0519 24.2517 17.0885C24.3015 17.1251 24.3659 17.1451 24.4325 17.1448H24.7159C25.33 17.1445 25.9409 17.2169 26.5302 17.3597C26.5705 17.3693 26.6128 17.371 26.654 17.3647C26.6952 17.3584 26.7341 17.3443 26.7675 17.3235C26.801 17.3026 26.8281 17.2756 26.8467 17.2446C26.8654 17.2136 26.8751 17.1794 26.875 17.1448V13.1258C26.875 12.2968 26.4769 11.5017 25.7683 10.9155C25.0597 10.3293 24.0987 10 23.0966 10Z" fill="#FC5185"/>
</svg>
