<svg width="30" height="30" viewBox="0 0 30 30" fill="none" xmlns="http://www.w3.org/2000/svg">
<path d="M27.3633 2.5H2.63672C1.18277 2.5 0 3.65649 0 5.07812V13.6719C0 15.0935 1.18277 16.25 2.63672 16.25H27.3633C28.8172 16.25 30 15.0935 30 13.6719V5.07812C30 3.65649 28.8172 2.5 27.3633 2.5ZM22.0898 7.65625C22.5752 7.65625 22.9688 8.04102 22.9688 8.51562C22.9688 8.99023 22.5752 9.375 22.0898 9.375C21.6045 9.375 21.2109 8.99023 21.2109 8.51562C21.2109 8.04102 21.6045 7.65625 22.0898 7.65625ZM25.6055 12.8125H4.39453C3.90873 12.8125 3.51562 12.4281 3.51562 11.9531C3.51562 11.4781 3.90873 11.0938 4.39453 11.0938H25.6055C26.0913 11.0938 26.4844 11.4781 26.4844 11.9531C26.4844 12.4281 26.0913 12.8125 25.6055 12.8125ZM25.6055 9.375C25.1201 9.375 24.7266 8.99023 24.7266 8.51562C24.7266 8.04102 25.1201 7.65625 25.6055 7.65625C26.0909 7.65625 26.4844 8.04102 26.4844 8.51562C26.4844 8.99023 26.0909 9.375 25.6055 9.375Z" fill="#053F5E"/>
<path d="M8.03577 18.125C7.56203 18.125 7.17868 18.5164 7.17868 19V20.3373C7.17868 22.4171 6.04624 24.2867 4.22406 25.2173C3.80055 25.4335 3.62896 25.959 3.84072 26.3914C4.05145 26.8203 4.56296 26.9995 4.99076 26.7827C7.39798 25.554 8.89286 23.0845 8.89286 20.3373V19C8.89286 18.5164 8.50951 18.125 8.03577 18.125Z" fill="#FC5185"/>
<path d="M21.9642 18.125C21.4905 18.125 21.1071 18.5164 21.1071 19V20.3373C21.1071 23.0845 22.602 25.554 25.0092 26.7827C25.4366 26.9993 25.9484 26.8208 26.1593 26.3914C26.371 25.959 26.1995 25.4335 25.7759 25.2173C23.9538 24.2868 22.8213 22.4171 22.8213 20.3373V19C22.8213 18.5164 22.438 18.125 21.9642 18.125Z" fill="#FC5185"/>
<path d="M15.9643 26V19C15.9643 18.5164 15.533 18.125 15 18.125C14.467 18.125 14.0357 18.5164 14.0357 19V26C14.0357 26.4836 14.467 26.875 15 26.875C15.533 26.875 15.9643 26.4836 15.9643 26Z" fill="#FC5185"/>
<path d="M19.1964 26V19C19.1964 18.5164 18.7651 18.125 18.2321 18.125C17.6991 18.125 17.2679 18.5164 17.2679 19V26C17.2679 26.4836 17.6991 26.875 18.2321 26.875C18.7651 26.875 19.1964 26.4836 19.1964 26Z" fill="#FC5185"/>
<path d="M12.7321 26V19C12.7321 18.5164 12.3009 18.125 11.7679 18.125C11.2349 18.125 10.8036 18.5164 10.8036 19V26C10.8036 26.4836 11.2349 26.875 11.7679 26.875C12.3009 26.875 12.7321 26.4836 12.7321 26Z" fill="#FC5185"/>
</svg>
