<svg width="196" height="51" viewBox="0 0 196 51" fill="none" xmlns="http://www.w3.org/2000/svg">
<path fill-rule="evenodd" clip-rule="evenodd" d="M19.3465 8.26148C20.2761 6.15574 22.5483 5.12964 24.9027 5.59092C25.8029 5.76729 26.3913 6.64836 26.2169 7.55884C26.0426 8.46933 25.1714 9.06444 24.2712 8.88807C23.2039 8.67896 22.5884 9.15552 22.3786 9.6307C22.176 10.0897 22.0875 11.2012 23.562 12.7051C25.1836 14.3589 25.7229 16.2941 25.0796 18.0525C24.4846 19.679 23.014 20.7388 21.509 21.061C20.6119 21.253 19.7308 20.6731 19.5409 19.7658C19.351 18.8585 19.9243 17.9673 20.8214 17.7753C21.4043 17.6505 21.8298 17.2578 21.9653 16.8872C22.0527 16.6484 22.157 16.0416 21.2042 15.0699C19.1072 12.9311 18.4098 10.3834 19.3465 8.26148Z" fill="#55B3F3"/>
<path fill-rule="evenodd" clip-rule="evenodd" d="M9.98198 3.58967C11.1419 0.908421 14.0142 -0.471206 17.0994 0.14559C17.9992 0.325487 18.5852 1.21282 18.4082 2.12749C18.2312 3.04217 17.3583 3.63783 16.4585 3.45793C14.6956 3.10549 13.4764 3.89839 13.0221 4.94859C12.571 5.9912 12.6241 7.92319 14.8443 10.2339C17.0003 12.4778 17.6178 14.9754 16.8309 17.1705C16.089 19.24 14.2296 20.6338 12.2797 21.0597C11.3831 21.2555 10.5 20.6755 10.3073 19.7641C10.1147 18.8527 10.6853 17.9551 11.5819 17.7592C12.5902 17.539 13.4173 16.8328 13.7106 16.0148C13.9588 15.3224 13.96 14.145 12.4685 12.5927C9.62846 9.63693 8.81873 6.27853 9.98198 3.58967Z" fill="#55B3F3"/>
<path d="M58.6394 35.1914C57.236 35.1914 55.9783 34.9635 54.8665 34.5079C53.7547 34.0522 52.8616 33.3778 52.1872 32.4847C51.531 31.5916 51.1847 30.5162 51.1483 29.2586H56.1242C56.1971 29.9694 56.4431 30.5162 56.8623 30.899C57.2816 31.2635 57.8284 31.4458 58.5027 31.4458C59.1954 31.4458 59.7422 31.2909 60.1431 30.981C60.5441 30.6529 60.7446 30.2064 60.7446 29.6414C60.7446 29.1675 60.5806 28.7756 60.2525 28.4657C59.9426 28.1559 59.5508 27.9007 59.0769 27.7002C58.6212 27.4997 57.9651 27.2719 57.1084 27.0167C55.869 26.634 54.8574 26.2512 54.0737 25.8684C53.2899 25.4857 52.6155 24.9207 52.0505 24.1734C51.4855 23.4261 51.203 22.4509 51.203 21.248C51.203 19.4618 51.85 18.0674 53.1441 17.065C54.4382 16.0443 56.1242 15.5339 58.202 15.5339C60.3163 15.5339 62.0205 16.0443 63.3146 17.065C64.6087 18.0674 65.3013 19.4709 65.3924 21.2753H60.3345C60.2981 20.6556 60.0702 20.1726 59.651 19.8263C59.2318 19.4618 58.6941 19.2795 58.038 19.2795C57.4729 19.2795 57.0173 19.4344 56.671 19.7443C56.3247 20.0359 56.1515 20.4642 56.1515 21.0293C56.1515 21.649 56.4431 22.132 57.0264 22.4783C57.6096 22.8246 58.521 23.1982 59.7604 23.5992C60.9998 24.0184 62.0023 24.4194 62.7678 24.8022C63.5515 25.1849 64.2259 25.7409 64.7909 26.4699C65.356 27.199 65.6385 28.1377 65.6385 29.2859C65.6385 30.3795 65.356 31.3729 64.7909 32.266C64.2441 33.1591 63.4422 33.8699 62.385 34.3985C61.3279 34.9271 60.0793 35.1914 58.6394 35.1914ZM73.1907 14.7684V35H68.5156V14.7684H73.1907ZM90.9596 27.1261C90.9596 27.5635 90.9323 28.0192 90.8776 28.4931H80.297C80.3699 29.4409 80.6706 30.1699 81.1992 30.6803C81.746 31.1724 82.4113 31.4185 83.195 31.4185C84.3615 31.4185 85.1726 30.9263 85.6283 29.9421H90.6042C90.349 30.9446 89.8842 31.8468 89.2098 32.6488C88.5537 33.4507 87.7244 34.0796 86.7219 34.5352C85.7194 34.9909 84.5985 35.2187 83.3591 35.2187C81.8645 35.2187 80.5339 34.8998 79.3674 34.2618C78.2009 33.6239 77.2896 32.7126 76.6334 31.5278C75.9773 30.3431 75.6492 28.9579 75.6492 27.3721C75.6492 25.7864 75.9682 24.4012 76.6061 23.2165C77.2623 22.0317 78.1736 21.1204 79.3401 20.4825C80.5066 19.8445 81.8463 19.5256 83.3591 19.5256C84.8354 19.5256 86.1478 19.8354 87.296 20.4551C88.4443 21.0748 89.3374 21.9588 89.9754 23.1071C90.6315 24.2554 90.9596 25.595 90.9596 27.1261ZM86.1751 25.8958C86.1751 25.0938 85.9017 24.4559 85.3549 23.982C84.8081 23.5081 84.1246 23.2711 83.3044 23.2711C82.5206 23.2711 81.8554 23.499 81.3086 23.9546C80.78 24.4103 80.4519 25.0574 80.3243 25.8958H86.1751ZM107.807 27.1261C107.807 27.5635 107.779 28.0192 107.725 28.4931H97.1442C97.2171 29.4409 97.5178 30.1699 98.0464 30.6803C98.5932 31.1724 99.2585 31.4185 100.042 31.4185C101.209 31.4185 102.02 30.9263 102.476 29.9421H107.451C107.196 30.9446 106.731 31.8468 106.057 32.6488C105.401 33.4507 104.572 34.0796 103.569 34.5352C102.567 34.9909 101.446 35.2187 100.206 35.2187C98.7117 35.2187 97.3811 34.8998 96.2146 34.2618C95.0481 33.6239 94.1368 32.7126 93.4806 31.5278C92.8245 30.3431 92.4964 28.9579 92.4964 27.3721C92.4964 25.7864 92.8154 24.4012 93.4533 23.2165C94.1095 22.0317 95.0208 21.1204 96.1873 20.4825C97.3538 19.8445 98.6935 19.5256 100.206 19.5256C101.683 19.5256 102.995 19.8354 104.143 20.4551C105.292 21.0748 106.185 21.9588 106.823 23.1071C107.479 24.2554 107.807 25.595 107.807 27.1261ZM103.022 25.8958C103.022 25.0938 102.749 24.4559 102.202 23.982C101.655 23.5081 100.972 23.2711 100.152 23.2711C99.3679 23.2711 98.7026 23.499 98.1558 23.9546C97.6272 24.4103 97.2991 25.0574 97.1715 25.8958H103.022ZM114.948 21.9041C115.404 21.1933 116.033 20.6192 116.835 20.1817C117.637 19.7443 118.575 19.5256 119.651 19.5256C120.908 19.5256 122.048 19.8445 123.068 20.4825C124.089 21.1204 124.891 22.0317 125.474 23.2165C126.076 24.4012 126.376 25.7773 126.376 27.3448C126.376 28.9123 126.076 30.2975 125.474 31.5005C124.891 32.6852 124.089 33.6057 123.068 34.2618C122.048 34.8998 120.908 35.2187 119.651 35.2187C118.594 35.2187 117.655 35 116.835 34.5626C116.033 34.1251 115.404 33.5601 114.948 32.8675V42.2724H110.273V19.7443H114.948V21.9041ZM121.619 27.3448C121.619 26.1783 121.291 25.267 120.635 24.6108C119.997 23.9364 119.204 23.5992 118.256 23.5992C117.327 23.5992 116.534 23.9364 115.878 24.6108C115.24 25.2852 114.921 26.2056 114.921 27.3721C114.921 28.5386 115.24 29.4591 115.878 30.1335C116.534 30.8079 117.327 31.1451 118.256 31.1451C119.186 31.1451 119.979 30.8079 120.635 30.1335C121.291 29.4409 121.619 28.5113 121.619 27.3448Z" fill="#55B3F3"/>
<path d="M135.035 35.2187C133.705 35.2187 132.52 34.9909 131.481 34.5352C130.442 34.0796 129.622 33.4598 129.021 32.6761C128.419 31.8741 128.082 30.981 128.009 29.9968H132.629C132.684 30.5254 132.93 30.9537 133.368 31.2818C133.805 31.6098 134.343 31.7739 134.981 31.7739C135.564 31.7739 136.01 31.6645 136.32 31.4458C136.648 31.2089 136.812 30.9081 136.812 30.5436C136.812 30.1061 136.585 29.7872 136.129 29.5867C135.673 29.368 134.935 29.131 133.914 28.8758C132.821 28.6207 131.909 28.3564 131.18 28.083C130.451 27.7914 129.822 27.3448 129.294 26.7433C128.765 26.1236 128.501 25.2943 128.501 24.2554C128.501 23.3805 128.738 22.5876 129.212 21.8768C129.704 21.1477 130.415 20.5736 131.344 20.1544C132.292 19.7352 133.413 19.5256 134.707 19.5256C136.621 19.5256 138.125 19.9995 139.218 20.9472C140.33 21.895 140.968 23.1527 141.132 24.7202H136.812C136.74 24.1916 136.503 23.7724 136.102 23.4625C135.719 23.1527 135.208 22.9977 134.571 22.9977C134.024 22.9977 133.605 23.1071 133.313 23.3258C133.021 23.5263 132.875 23.8088 132.875 24.1734C132.875 24.6108 133.103 24.9389 133.559 25.1576C134.033 25.3763 134.762 25.595 135.746 25.8138C136.876 26.1054 137.797 26.397 138.507 26.6886C139.218 26.962 139.838 27.4177 140.367 28.0556C140.913 28.6753 141.196 29.5138 141.214 30.5709C141.214 31.464 140.959 32.266 140.449 32.9768C139.957 33.6695 139.237 34.2163 138.289 34.6172C137.359 35.0182 136.275 35.2187 135.035 35.2187ZM152.577 31.0357V35H150.199C148.503 35 147.182 34.5899 146.234 33.7697C145.286 32.9313 144.813 31.5734 144.813 29.696V23.6266H142.953V19.7443H144.813V16.026H149.488V19.7443H152.55V23.6266H149.488V29.7507C149.488 30.2064 149.597 30.5345 149.816 30.735C150.034 30.9355 150.399 31.0357 150.909 31.0357H152.577ZM154.252 27.3448C154.252 25.7773 154.543 24.4012 155.127 23.2165C155.728 22.0317 156.539 21.1204 157.56 20.4825C158.581 19.8445 159.72 19.5256 160.977 19.5256C162.053 19.5256 162.991 19.7443 163.793 20.1817C164.614 20.6192 165.242 21.1933 165.68 21.9041V19.7443H170.355V35H165.68V32.8401C165.224 33.551 164.586 34.1251 163.766 34.5626C162.964 35 162.025 35.2187 160.95 35.2187C159.711 35.2187 158.581 34.8998 157.56 34.2618C156.539 33.6057 155.728 32.6852 155.127 31.5005C154.543 30.2975 154.252 28.9123 154.252 27.3448ZM165.68 27.3721C165.68 26.2056 165.352 25.2852 164.696 24.6108C164.058 23.9364 163.274 23.5992 162.344 23.5992C161.415 23.5992 160.622 23.9364 159.966 24.6108C159.328 25.267 159.009 26.1783 159.009 27.3448C159.009 28.5113 159.328 29.4409 159.966 30.1335C160.622 30.8079 161.415 31.1451 162.344 31.1451C163.274 31.1451 164.058 30.8079 164.696 30.1335C165.352 29.4591 165.68 28.5386 165.68 27.3721ZM189.321 19.7443L179.752 42.2451H174.721L178.221 34.4805L172.015 19.7443H177.237L180.764 29.2859L184.263 19.7443H189.321ZM193.199 35.2187C192.379 35.2187 191.704 34.9818 191.176 34.5079C190.665 34.0158 190.41 33.4143 190.41 32.7034C190.41 31.9744 190.665 31.3638 191.176 30.8717C191.704 30.3795 192.379 30.1335 193.199 30.1335C194.001 30.1335 194.657 30.3795 195.167 30.8717C195.696 31.3638 195.96 31.9744 195.96 32.7034C195.96 33.4143 195.696 34.0158 195.167 34.5079C194.657 34.9818 194.001 35.2187 193.199 35.2187Z" fill="#6356E5"/>
<path d="M11.8138 45.1264H23.6242C26.8843 45.1264 29.5294 42.4954 29.5294 39.2527H31.4978C35.8405 39.2527 39.3713 35.7407 39.3713 31.4211C39.3713 27.1016 35.8405 23.5896 31.4978 23.5896H7.38492C6.56681 23.5896 5.90862 24.2443 5.90862 25.058V39.2527C5.90862 42.4954 8.55365 45.1264 11.8138 45.1264ZM31.4978 27.5054C33.6691 27.5054 35.4345 29.2614 35.4345 31.4211C35.4345 33.5809 33.6691 35.3369 31.4978 35.3369H29.5294V27.5054H31.4978ZM34.4319 51H2.97449C0.0464981 51 -0.777767 47.0842 0.760041 47.0842H36.6402C38.178 47.0842 37.366 51 34.4319 51Z" fill="#6356E5"/>
<path fill-rule="evenodd" clip-rule="evenodd" d="M10.715 26.5798C11.4031 26.5798 11.9609 27.1377 11.9609 27.8258V37.9593C11.9609 38.6474 11.4031 39.2052 10.715 39.2052C10.0269 39.2052 9.46906 38.6474 9.46906 37.9593V27.8258C9.46906 27.1377 10.0269 26.5798 10.715 26.5798Z" fill="white"/>
</svg>
